<svg xmlns="http://www.w3.org/2000/svg" width="256" height="256" viewBox="0 0 256 256">
<defs></defs>
<g transform="translate(22.61 22.61) scale(2.33 2.33)">
	<circle cx="45" cy="45" r="45" fill="rgb(0,172,237)"/>
	<path d="M45 15c-16.542 0-30 13.458-30 30s13.458 30 30 30 30-13.458 30-30-13.458-30-30-30zm0 52c-12.131 0-22-9.869-22-22s9.869-22 22-22 22 9.869 22 22-9.869 22-22 22z" fill="rgb(255,255,255)"/>
	<path d="M50 38c-2.5-1-5-1.5-7.5-1.5-5.5 0-10 3-10 8 0 4 3 6.5 7 8l3 1c3 1 5 2 5 4.5 0 3-2.5 4.5-5.5 4.5-3.5 0-6-2-7-4l-6 3c2 4 6 7 13 7 6 0 12-3.5 12-10.5 0-4.5-3.5-7-7.5-8.5l-3-1c-2.5-0.8-4.5-2-4.5-4 0-2 2-3.5 4.5-3.5 2.5 0 4.5 1 5.5 2.5z" fill="rgb(255,255,255)"/>
</g>
</svg>
